# AST/ASF file generated using VICON BodyLanguage
# -----------------------------------------------
:version 1.10
:name VICON
:units
  mass 1.0
  length 0.45
  angle deg
:documentation
   .ast/.asf automatically generated from VICON data using
   VICON BodyBuilder and BodyLanguage model FoxedUp or BRILLIANT.MOD
:root
   order TX TY TZ RX RY RZ
   axis XYZ
   position 0 0 0  
   orientation 0 0 0 
:bonedata
  begin
     id 1 
     name lhipjoint
     direction 0.588788 -0.725889 0.355548 
     length 2.37778 
     axis 0 0 0  XYZ
  end
  begin
     id 2 
     name lfemur
     direction 0.34202 -0.939693 0  
     length 6.86393  
     axis 0 0 20  XYZ
    dof rx ry rz
    limits (-160.0 20.0)
           (-70.0 70.0)
           (-60.0 70.0)
  end
  begin
     id 3 
     name ltibia
     direction 0.34202 -0.939693 0   
     length 7.32851   
     axis 0 0 20   XYZ
    dof rx
    limits (-10.0 170.0)
  end
  begin
     id 4 
     name lfoot
     direction 0.0626533 -0.172138 0.983078   
     length 1.98929   
     axis -90 7.62852e-016 20   XYZ
    dof rx rz
    limits (-45.0 90.0)
           (-70.0 20.0)
  end
  begin
     id 5 
     name ltoes
     direction 1.53647e-011 -4.21734e-011 1   
     length 1.00479   
     axis -90 7.62852e-016 20   XYZ
    dof rx
    limits (-90.0 20.0)
  end
  begin
     id 6 
     name rhipjoint
     direction -0.59141 -0.724168 0.354705   
     length 2.38343  
     axis 0 0 0  XYZ 
  end
  begin
     id 7 
     name rfemur
     direction -0.34202 -0.939693 0   
     length 6.95589   
     axis 0 0 -20   XYZ
    dof rx ry rz
    limits (-160.0 20.0)
           (-70.0 70.0)
           (-70.0 60.0)
  end
  begin
     id 8 
     name rtibia
     direction -0.34202 -0.939693 0   
     length 7.32327   
     axis 0 0 -20   XYZ
    dof rx
    limits (-10.0 170.0)
 end
 begin
     id 9 
     name rfoot
     direction -0.0660461 -0.18146 0.981178   
     length 1.85272  
     axis -90 -7.62852e-016 -20   XYZ
    dof rx rz
    limits (-45.0 90.0)
           (-20.0 70.0)
  end
  begin
     id 10 
     name rtoes
     direction -1.53586e-011 -4.21988e-011 1   
     length 0.93746   
     axis -90 -7.62852e-016 -20   XYZ
    dof rx
    limits (-90.0 20.0)
  end
  begin
     id 11 
     name lowerback
     direction -0.0107982 0.991059 0.13299   
     length 1.98691   
     axis 0 0 0   XYZ
    dof rx ry rz
    limits (-20.0 45.0)
           (-30.0 30.0)
           (-30.0 30.0)
  end
  begin
     id 12 
     name upperback
     direction 0.0076296 0.999916 0.0104576   
     length 1.99501   
     axis 0 0 0   XYZ
    dof rx ry rz
    limits (-20.0 45.0)
           (-30.0 30.0)
           (-30.0 30.0)
  end
  begin
     id 13 
     name thorax
     direction 0.01176 0.998615 -0.0512909   
     length 2.03144   
     axis 0 0 0   XYZ
    dof rx ry rz
    limits (-20.0 45.0)
           (-30.0 30.0)
           (-30.0 30.0)
  end
  begin
     id 14 
     name lowerneck
     direction -0.0171909 0.999644 0.0204011   
     length 1.71818   
     axis 0 0 0   XYZ
    dof rx ry rz
    limits (-20.0 45.0)
           (-30.0 30.0)
           (-30.0 30.0)
  end
  begin
     id 15 
     name upperneck
     direction 0.0250902 0.997482 -0.0663316   
     length 1.66199   
     axis 0 0 0   XYZ
    dof rx ry rz
    limits (-20.0 45.0)
           (-30.0 30.0)
           (-30.0 30.0)
  end
  begin
     id 16
     name head
     direction 0.00881535 0.99956 -0.0283365  
     length 1.81545  
     axis 0 0 0   XYZ
    dof rx ry rz
    limits (-20.0 45.0)
           (-30.0 30.0)
           (-30.0 30.0)
  end
  begin
     id 17 
     name lclavicle
     direction 0.840411 0.486876 -0.238035  
     length 3.30409  
     axis 0 0 0   XYZ
    dof ry rz
    limits (-20.0 10.0)
           (0.0 20.0)
  end
  begin
     id 18 
     name lhumerus
     direction 1 -4.48977e-011 -5.16239e-027   
     length 4.62672   
     axis 180 -30 -90   XYZ
    dof rx ry rz
    limits (-60.0 90.0)
           (-90.0 90.0)
           (-90.0 90.0)
  end
  begin
     id 19
     name lradius
     direction 1 -4.48977e-011 -8.71171e-027   
     length 3.11018   
     axis 180 -30 -90   XYZ
    dof rx
    limits (-10.0 170.0)
  end
  begin
     id 20
     name lwrist
     direction 1 -4.48912e-011 -1.03764e-026   
     length 1.55509   
     axis 9.09556e-015 90 90   XYZ
    dof ry
    limits (-180.0 0.0)
 end
  begin
     id 21 
     name lhand
     direction 1 -4.49072e-011 -2.07528e-026   
     length 0.743834   
     axis 1.3242e-014 90 90   XYZ
    dof rx rz
    limits (-90.0 90.0)
           (-45.0 45.0)
  end
  begin
     id 22 
     name lfingers
     direction 1 -4.48909e-011 -4.15056e-026   
     length 0.599698   
     axis 2.64841e-014 90 90   XYZ
    dof rx
    limits (0.0 90.0)
  end
  begin
     id 23
     name lthumb
     direction 0.707107 -6.35013e-011 0.707107   
     length 0.86105   
     axis -90 45 2.85299e-015   XYZ
    dof rx rz
    limits (-45.0 45.0)
           (-45.0 45.0)
  end
  begin
     id 24 
     name rclavicle
     direction -0.835208 0.500237 -0.228452   
     length 3.2716  
     axis 0 0 0   XYZ 
    dof ry rz
    limits (-10.0 20.0)
           (-20.0 0.0)
  end
  begin
     id 25 
     name rhumerus
     direction -1 -4.48978e-011 -5.1953e-028  
     length 4.55919   
     axis 180 30 90   XYZ
    dof rx ry rz
    limits (-90.0 60.0)
           (-90.0 90.0)
           (-90.0 90.0)
  end
  begin
     id 26 
     name rradius
     direction -1 -4.48961e-011 -5.99546e-027   
     length 3.22748   
     axis 180 30 90   XYZ
    dof rx
    limits (-10.0 170.0)
  end
  begin
     id 27 
     name rwrist
     direction -1 -4.48986e-011 -1.03764e-026   
     length 1.61374   
     axis 9.09556e-015 -90 -90   XYZ
    dof ry
    limits (-180.0 0.0)
  end
  begin
     id 28
     name rhand
     direction -1 -4.4899e-011 -2.07528e-026   
     length 0.700882   
     axis 1.3242e-014 -90 -90   XYZ
    dof rx rz
    limits (-90.0 90.0)
           (-45.0 45.0)
  end
  begin
     id 29
     name rfingers
     direction -1 -4.48991e-011 -4.15056e-026   
     length 0.565069   
     axis 2.64841e-014 -90 -90   XYZ
    dof rx
    limits (0.0 90.0)
  end
  begin
     id 30
     name rthumb
     direction -0.707107 -6.34804e-011 0.707107   
     length 0.811329   
     axis -90 -45 -2.85299e-015   XYZ
    dof rx rz
    limits (-45.0 45.0)
           (-45.0 45.0)
  end
:hierarchy
  begin
    root lhipjoint rhipjoint lowerback
    lhipjoint lfemur
    lfemur ltibia
    ltibia lfoot
    lfoot ltoes
    rhipjoint rfemur
    rfemur rtibia
    rtibia rfoot
    rfoot rtoes
    lowerback upperback
    upperback thorax
    thorax lowerneck lclavicle rclavicle
    lowerneck upperneck
    upperneck head
    lclavicle lhumerus
    lhumerus lradius
    lradius lwrist
    lwrist lhand lthumb
    lhand lfingers
    rclavicle rhumerus
    rhumerus rradius
    rradius rwrist
    rwrist rhand rthumb
    rhand rfingers
  end

#!OML:ASF F:\VICON\USERDATA\INSTALL\SteveWalk\SteveWalk.ASF
:FULLY-SPECIFIED
:DEGREES
196
root 1.27422 16.5019 -8.41848 14.7325 -11.2406 -0.564654
lowerback -14.1453 -1.60045 -2.35682
upperback -2.90237 -1.84791 1.09121
thorax 4.96849 -0.955036 2.14363
lowerneck 4.1321 -9.19857 -7.41443
upperneck 3.39536 -12.5554 1.43421
head 0.954073 -6.35928 1.66148
rclavicle 1.11531e-014 1.33341e-014
rhumerus -27.3447 17.8005 -89.8129
rradius 75.1718
rwrist -32.1487
rhand -18.1717 -44.8488
rfingers 7.12502
rthumb 8.10461 -434.673
lclavicle 1.11531e-014 1.33341e-014
lhumerus -34.5055 15.3922 72.2808
lradius 26.1892
lwrist -8.64424
lhand -16.9818 -18.5188
lfingers 7.12502
lthumb 9.25295 11.2581
rfemur -19.7476 -4.82935 13.5778
rtibia 61.0714
rfoot 12.843 18.3329
rtoes -19.8282
lfemur -37.2021 3.3374 -22.4244
ltibia 34.8976
lfoot -10.5564 2.72719
ltoes -6.8929
197
root 1.29222 16.5076 -8.29826 14.6871 -11.1104 -0.69993
lowerback -14.1341 -1.67789 -2.19252
upperback -2.90296 -1.97592 1.11008
thorax 4.96433 -1.01591 2.04709
lowerneck 4.3256 -9.18256 -7.52893
upperneck 3.23011 -12.5563 1.54928
head 0.885286 -6.35836 1.73145
rclavicle -1.00448e-014 -3.78933e-016
rhumerus -27.202 17.7609 -89.9004
rradius 74.9122
rwrist -31.825
rhand -18.4218 -44.9874
rfingers 7.12502
rthumb 7.86324 -434.821
lclavicle -1.00448e-014 -3.78933e-016
lhumerus -34.2966 15.0036 72.4191
lradius 26.7915
lwrist -8.61483
lhand -16.357 -17.8929
lfingers 7.12502
lthumb 9.85575 11.8565
rfemur -20.6798 -5.30556 13.7893
rtibia 62.4425
rfoot 15.9667 17.9732
rtoes -19.412
lfemur -36.6818 3.31524 -22.407
ltibia 34.9331
lfoot -11.0828 2.75827
ltoes -6.63604
198
root 1.30861 16.5352 -8.17602 14.6161 -11.1239 -0.807449
lowerback -14.1242 -1.76903 -2.11947
upperback -2.92627 -2.11114 1.16954
thorax 4.94129 -1.08154 2.04393
lowerneck 4.43937 -9.12262 -7.87898
upperneck 3.1807 -12.5034 1.76004
head 0.887027 -6.33546 1.86289
rclavicle -1.40914e-014 2.07295e-014
rhumerus -27.2342 17.8948 -90.052
rradius 74.833
rwrist -31.8646
rhand -17.5601 -43.8035
rfingers 7.12502
rthumb 8.69488 -433.604
lclavicle -1.40914e-014 2.07295e-014
lhumerus -34.2719 14.8675 72.5005
lradius 27.4165
lwrist -8.33776
lhand -15.4414 -17.2048
lfingers 7.12502
lthumb 10.739 12.5007
rfemur -21.4743 -5.57147 13.9361
rtibia 63.6087
rfoot 15.8528 17.6495
rtoes -23.3275
lfemur -36.117 3.7479 -22.5479
ltibia 34.9244
lfoot -11.6828 2.35549
ltoes -5.77654
199
root 1.32687 16.5479 -8.06101 14.5851 -10.9869 -0.933131
lowerback -13.9937 -1.85409 -2.00885
upperback -2.98432 -2.24468 1.20816
thorax 4.81333 -1.14457 2.00159
lowerneck 4.36995 -9.08118 -7.90005
upperneck 3.31057 -12.4429 1.74005
head 0.937019 -6.30809 1.85334
rclavicle -1.71634e-014 -9.38015e-015
rhumerus -27.3357 17.9851 -90.169
rradius 74.8921
rwrist -31.9138
rhand -16.9225 -43.2115
rfingers 7.12502
rthumb 9.31016 -432.986
lclavicle -1.71634e-014 -9.38015e-015
lhumerus -34.0605 14.5889 72.6425
lradius 27.7578
lwrist -8.2641
lhand -15.4092 -17.0829
lfingers 7.12502
lthumb 10.7701 12.621
rfemur -22.2491 -5.88759 14.1219
rtibia 64.7145
rfoot 15.3529 17.2532
rtoes -27.4938
lfemur -35.6246 3.70124 -22.5368
ltibia 34.94
lfoot -12.0255 2.41852
ltoes -5.92898
200
root 1.34445 16.5484 -7.95023 14.5154 -10.8426 -0.918038
lowerback -13.9234 -1.89451 -2.03966
upperback -2.91135 -2.29246 1.1712
thorax 4.85403 -1.1692 1.97211
lowerneck 4.21362 -9.12261 -7.64705
upperneck 3.37236 -12.4724 1.57523
head 0.955249 -6.32051 1.74964
rclavicle -2.65486e-015 1.87852e-014
rhumerus -27.2288 17.8233 -90.1305
rradius 74.8804
rwrist -31.819
rhand -16.7606 -42.7166
rfingers 7.12502
rthumb 9.46633 -432.484
lclavicle -2.65486e-015 1.87852e-014
lhumerus -33.4116 14.1925 72.8494
lradius 27.8816
lwrist -8.91862
lhand -15.5596 -17.0137
lfingers 7.12502
lthumb 10.625 12.6977
rfemur -23.009 -6.18464 14.1751
rtibia 65.755
rfoot 14.7563 16.5878
rtoes -29.6299
lfemur -35.0901 3.38249 -22.608
ltibia 34.9629
lfoot -12.2839 2.83165
ltoes -6.95252
201
root 1.35136 16.5481 -7.84697 14.4787 -10.7752 -1.01823
lowerback -13.8975 -1.946 -2.07947
upperback -2.8311 -2.35627 1.1939
thorax 4.93034 -1.20262 2.00623
lowerneck 4.18794 -9.15576 -7.55355
upperneck 3.31325 -12.5106 1.54914
head 0.934295 -6.33714 1.7261
rclavicle -1.37084e-014 -6.31141e-015
rhumerus -27.1413 17.7649 -90.1588
rradius 74.8275
rwrist -31.8336
rhand -17.2388 -42.4524
rfingers 7.12502
rthumb 9.00491 -432.24
lclavicle -1.37084e-014 -6.31141e-015
lhumerus -32.88 13.6819 73.0814
lradius 28.3188
lwrist -9.01483
lhand -15.1572 -16.2983
lfingers 7.12502
lthumb 11.0132 13.3928
rfemur -23.789 -6.18558 14.4227
rtibia 66.7119
rfoot 14.2108 15.5711
rtoes -29.8748
lfemur -34.6374 3.20954 -22.5238
ltibia 35.0127
lfoot -12.5753 3.12904
ltoes -7.24249
202
root 1.3576 16.5572 -7.74824 14.4133 -10.6025 -1.33537
lowerback -13.6427 -2.02407 -1.9298
upperback -2.90438 -2.4934 1.33275
thorax 4.72104 -1.26686 2.05128
lowerneck 4.36691 -9.11132 -7.64566
upperneck 3.3522 -12.469 1.54338
head 0.920518 -6.31898 1.74839
rclavicle 3.96342e-014 1.58531e-014
rhumerus -27.4781 17.7903 -90.2583
rradius 74.9356
rwrist -31.8105
rhand -17.4093 -42.2488
rfingers 7.12502
rthumb 8.84043 -432.044
lclavicle 3.96342e-014 1.58531e-014
lhumerus -32.7229 13.024 73.398
lradius 28.8167
lwrist -8.20275
lhand -14.4375 -14.8999
lfingers 7.12502
lthumb 11.7072 14.753
rfemur -24.4456 -6.16154 14.9579
rtibia 67.4885
rfoot 13.7985 14.8618
rtoes -29.1996
lfemur -34.1492 3.04701 -22.1691
ltibia 35.0209
lfoot -12.927 3.22559
ltoes -6.65444
203
root 1.37269 16.5697 -7.6399 14.2964 -10.6151 -1.4117
lowerback -13.6214 -2.0365 -1.83898
upperback -2.83009 -2.5222 1.31918
thorax 4.78477 -1.28091 1.97993
lowerneck 4.28143 -9.0748 -7.76461
upperneck 3.44402 -12.4208 1.68959
head 0.980468 -6.29787 1.80707
rclavicle 7.94362e-015 -4.42296e-015
rhumerus -27.496 17.7477 -90.316
rradius 74.9768
rwrist -31.6846
rhand -17.0274 -41.6523
rfingers 7.12502
rthumb 9.20892 -431.431
lclavicle 7.94362e-015 -4.42296e-015
lhumerus -32.2027 12.4506 73.6902
lradius 28.9528
lwrist -7.60702
lhand -13.161 -13.1326
lfingers 7.12502
lthumb 12.938 16.4463
rfemur -25.0648 -6.138 15.0982
rtibia 68.1218
rfoot 13.2284 14.4722
rtoes -27.0757
lfemur -33.556 2.89417 -22.1491
ltibia 35.0069
lfoot -13.2996 3.46381
ltoes -6.09113
204
root 1.38678 16.5775 -7.52674 14.1794 -10.6695 -1.21806
lowerback -13.7779 -2.0342 -1.9973
upperback -2.66785 -2.48569 1.1805
thorax 5.04001 -1.26732 1.92269
lowerneck 4.11274 -9.12358 -7.70539
upperneck 3.38942 -12.4722 1.78919
head 0.997203 -6.32082 1.82041
rclavicle -5.20257e-015 9.24349e-015
rhumerus -27.1782 17.572 -90.3031
rradius 74.9162
rwrist -31.776
rhand -16.9212 -41.9681
rfingers 7.12502
rthumb 9.3114 -431.742
lclavicle -5.20257e-015 9.24349e-015
lhumerus -31.4747 12.0757 73.874
lradius 28.9079
lwrist -7.58243
lhand -12.3358 -12.5042
lfingers 7.12502
lthumb 13.7334 17.0226
rfemur -25.5866 -6.11049 14.8609
rtibia 68.6515
rfoot 12.0418 14.0833
rtoes -24.8399
lfemur -32.9223 2.83683 -22.4725
ltibia 34.9047
lfoot -13.7947 3.59592
ltoes -5.9626
205
root 1.39923 16.5722 -7.42753 14.1346 -10.4195 -1.19222
lowerback -13.7279 -2.14326 -2.05132
upperback -2.6862 -2.6225 1.16974
thorax 5.00203 -1.33495 1.91874
lowerneck 4.23746 -9.13002 -7.65477
upperneck 3.29809 -12.4901 1.83079
head 0.947487 -6.3279 1.8345
rclavicle -9.25281e-015 1.53064e-014
rhumerus -27.2629 17.513 -90.3692
rradius 74.9189
rwrist -31.7939
rhand -16.8762 -41.82
rfingers 7.12502
rthumb 9.35484 -431.592
lclavicle -9.25281e-015 1.53064e-014
lhumerus -31.2174 11.7852 74.004
lradius 29.3818
lwrist -7.75011
lhand -13.0944 -13.0438
lfingers 7.12502
lthumb 13.0022 16.531
rfemur -25.934 -6.03451 14.8571
rtibia 69.1116
rfoot 9.73271 13.8271
rtoes -22.8195
lfemur -32.4445 2.63995 -22.558
ltibia 34.7862
lfoot -13.6614 3.80981
ltoes -9.20562
206
root 1.4122 16.5853 -7.32466 14.1611 -10.2318 -1.24563
lowerback -13.6209 -2.24098 -2.06608
upperback -2.81533 -2.75605 1.23979
thorax 4.81825 -1.39899 1.98241
lowerneck 4.48891 -9.14398 -7.75959
upperneck 3.2953 -12.5327 1.82481
head 0.913276 -6.35157 1.86271
rclavicle -3.72877e-014 8.05078e-015
rhumerus -27.7041 17.531 -90.4423
rradius 75.1203
rwrist -31.798
rhand -16.9375 -41.3005
rfingers 7.12502
rthumb 9.29562 -431.076
lclavicle -3.72877e-014 8.05078e-015
lhumerus -31.101 11.4649 74.1752
lradius 29.8397
lwrist -7.94167
lhand -14.5136 -14.7069
lfingers 7.12502
lthumb 11.6339 14.9502
rfemur -26.8857 -6.27299 15.1587
rtibia 69.5213
rfoot 8.79553 13.8169
rtoes -23.3194
lfemur -31.9963 2.53522 -22.5913
ltibia 34.7092
lfoot -14.5442 3.75645
ltoes -6.73307
207
root 1.42098 16.5925 -7.21874 14.159 -10.2659 -1.22103
lowerback -13.6563 -2.24394 -2.17325
upperback -2.84198 -2.7439 1.23534
thorax 4.81353 -1.39411 2.03975
lowerneck 4.58672 -9.19099 -7.81714
upperneck 3.31888 -12.6062 1.86357
head 0.914984 -6.38993 1.8877
rclavicle -3.61633e-014 -2.68359e-015
rhumerus -27.9279 17.5031 -90.4376
rradius 75.3401
rwrist -31.9057
rhand -17.1486 -41.6862
rfingers 7.12502
rthumb 9.09197 -431.47
lclavicle -3.61633e-014 -2.68359e-015
lhumerus -30.6968 10.8159 74.4589
lradius 29.9087
lwrist -7.23666
lhand -15.5668 -16.5771
lfingers 7.12502
lthumb 10.6181 13.1346
rfemur -27.5588 -6.17232 15.2109
rtibia 69.7691
rfoot 7.87612 13.4615
rtoes -22.5667
lfemur -31.5117 2.61154 -22.7403
ltibia 34.6534
lfoot -14.8349 3.87809
ltoes -7.38705
208
root 1.43285 16.5857 -7.11218 14.0968 -10.244 -1.46958
lowerback -13.7362 -2.22653 -1.86552
upperback -2.76225 -2.76386 1.24785
thorax 4.92893 -1.40128 1.87148
lowerneck 4.62711 -9.18118 -7.92462
upperneck 3.19327 -12.6052 2.0746
head 0.890832 -6.38844 1.97798
rclavicle 6.02442e-014 9.54166e-015
rhumerus -27.8808 17.5588 -90.4622
rradius 75.3098
rwrist -32.0608
rhand -17.1796 -41.9142
rfingers 7.12502
rthumb 9.06204 -431.7
lclavicle 6.02442e-014 9.54166e-015
lhumerus -30.2944 10.2514 74.6845
lradius 30.14
lwrist -6.26579
lhand -15.3387 -16.3634
lfingers 7.12502
lthumb 10.8381 13.337
rfemur -27.7066 -5.84166 15.4377
rtibia 69.9213
rfoot 4.8277 13.2068
rtoes -22.8807
lfemur -30.936 2.72164 -22.6063
ltibia 34.5345
lfoot -15.1082 4.00171
ltoes -8.50731
